HIERARCHY
ROOT Hips
{
  OFFSET 267.745 86.9975 -272.335
  CHANNELS 6 Xposition Yposition Zposition Zrotation Xrotation Yrotation
  JOINT LeftUpLeg
  {
    OFFSET 8.64259 1.95398 -2.38835
    CHANNELS 3 Zrotation Xrotation Yrotation
    JOINT LeftLeg
    {
      OFFSET 43.7702 0 0
      CHANNELS 3 Zrotation Xrotation Yrotation
      JOINT LeftFoot
      {
        OFFSET 40.6238 0 0
        CHANNELS 3 Zrotation Xrotation Yrotation
        JOINT LeftToeBase
        {
          OFFSET 12.7242 0 0
          CHANNELS 3 Zrotation Xrotation Yrotation
          End Site
          {
            OFFSET 0 0 0
          }
        }
      }
    }
  }
  JOINT RightUpLeg
  {
    OFFSET -8.2249 1.95398 -2.59336
    CHANNELS 3 Zrotation Xrotation Yrotation
    JOINT RightLeg
    {
      OFFSET 43.5653 0 0
      CHANNELS 3 Zrotation Xrotation Yrotation
      JOINT RightFoot
      {
        OFFSET 40.6238 0 0
        CHANNELS 3 Zrotation Xrotation Yrotation
        JOINT RightToeBase
        {
          OFFSET 12.7242 0 0
          CHANNELS 3 Zrotation Xrotation Yrotation
          End Site
          {
            OFFSET 0 0 0
          }
        }
      }
    }
  }
  JOINT Spine
  {
    OFFSET 0.165834 0.87714 6.61349
    CHANNELS 3 Zrotation Xrotation Yrotation
    JOINT Spine1
    {
      OFFSET 7.38963 1.71661e-005 0
      CHANNELS 3 Zrotation Xrotation Yrotation
      JOINT Spine2
      {
        OFFSET 11.9445 1.14441e-005 0
        CHANNELS 3 Zrotation Xrotation Yrotation
        JOINT Spine3
        {
          OFFSET 14.7254 4.19617e-005 0
          CHANNELS 3 Zrotation Xrotation Yrotation
          JOINT Spine4
          {
            OFFSET 10.9679 0 0
            CHANNELS 3 Zrotation Xrotation Yrotation
            JOINT RightShoulder
            {
              OFFSET 2.46616 -1.6653 3.69651
              CHANNELS 3 Zrotation Xrotation Yrotation
              JOINT RightArm
              {
                OFFSET 13.0012 0 0
                CHANNELS 3 Zrotation Xrotation Yrotation
                JOINT RightForeArm
                {
                  OFFSET 28.7848 1.52588e-005 0
                  CHANNELS 3 Zrotation Xrotation Yrotation
                  JOINT RightHand
                  {
                    OFFSET 26.5688 1.52588e-005 0
                    CHANNELS 3 Zrotation Xrotation Yrotation
                    End Site
                    {
                      OFFSET 0 0 0
                    }
                  }
                }
              }
            }
            JOINT LeftShoulder
            {
              OFFSET 2.38034 -1.29275 -3.7523
              CHANNELS 3 Zrotation Xrotation Yrotation
              JOINT LeftArm
              {
                OFFSET 16.3182 6.10352e-005 0
                CHANNELS 3 Zrotation Xrotation Yrotation
                JOINT LeftForeArm
                {
                  OFFSET 27.0901 0 0
                  CHANNELS 3 Zrotation Xrotation Yrotation
                  JOINT LeftHand
                  {
                    OFFSET 24.5451 1.52588e-005 0
                    CHANNELS 3 Zrotation Xrotation Yrotation
                    End Site
                    {
                      OFFSET 0 0 0
                    }
                  }
                }
              }
            }
            JOINT Neck
            {
              OFFSET 5.0226 -0.0266342 0
              CHANNELS 3 Zrotation Xrotation Yrotation
              JOINT Head
              {
                OFFSET 6.69364 2.86102e-005 0
                CHANNELS 3 Zrotation Xrotation Yrotation
                End Site
                {
                  OFFSET 0 0 0
                }
              }
            }
          }
        }
      }
    }
  }
}
MOTION
Frames:	18
Frame Time:	0.0416667
-97.1212 83.8206 69.7512 107.938 53.2344 79.4008 179.28 0.191542 91.9381 -79.4544 5.97769 5.25826 52.9909 -2.05072 -1.24901 49.6549 -2.26314 1.00107 175.828 35.255 95.7686 -53.8985 -24.1477 1.91413 60.1249 -2.06693 -7.10357 35.3315 -1.87106 8.6111 -0.598101 8.69694 -91.3555 9.45295 -1.80238 -2.55138 -2.21911 -1.91288 -2.46964 -24.7378 -0.952655 -2.97477 -4.72511 -0.952636 -2.97476 101.145 -45.1152 -83.8592 25.7493 -10.2075 1.0146 3.93064 3.12391 -30.9612 -10.7788 0.0640909 -6.12045 -82.5656 -52.1738 89.8749 -20.208 23.0337 -9.95237 6.4108 3.41828 -53.3401 -3.74545 -0.0219334 -10.0889 35.212 3.12031 3.38709 -25.7178 0.902324 2.64345 
-85.1929 85.9175 58.1396 106.274 50.6071 79.455 178.887 21.0845 88.7736 -94.4652 8.8712 3.44668 56.274 1.21308 2.57304 47.7272 -2.1238 -0.0689612 175.978 24.9776 97.0238 -58.4019 -24.5109 1.05676 69.8561 -12.2563 -11.3897 39.8456 -2.59717 7.76928 0.00330002 8.47242 -91.4484 9.91391 -0.651004 -2.82534 -1.75982 -0.774674 -2.79399 -24.2708 0.227865 -2.89034 -4.25812 0.22785 -2.89035 99.8947 -44.1739 -85.9795 25.2451 -24.3183 -10.7961 -2.23085 -0.303188 -41.1833 -9.03394 0.0417641 -6.03071 -81.4091 -51.7308 91.5577 -12.5394 12.9583 -6.31981 5.06293 1.11509 -54.6882 -0.586645 -0.185734 -10.3605 31.8411 3.16062 5.88963 -25.7042 -0.00599841 2.69217 
-72.8347 94.0969 47.0481 106.919 52.2084 73.1657 -179.385 34.5061 82.8138 -85.9625 5.97551 2.41505 58.0947 1.03464 -0.864842 46.3038 -1.86376 2.16627 177.178 7.29494 91.297 -43.648 -18.9108 -1.05396 64.5509 -0.825359 4.83659 33.6241 -1.48284 5.29554 0.354882 8.02357 -90.7459 10.8376 0.361719 -1.52179 -0.834198 0.294382 -1.53623 -23.3642 0.802337 -1.34278 -3.35153 0.802326 -1.34279 100.48 -43.3019 -85.0316 27.2282 -34.0721 -9.36651 -7.85048 4.28959 -56.84 -5.18581 0.0750251 -7.91723 -81.0251 -48.3914 91.9447 -7.11377 5.43193 -3.25277 1.34656 -2.70838 -59.0015 2.5598 -0.301718 -9.56291 24.8598 -0.0280574 7.19487 -24.1749 -2.51461 -0.67288 
-61.2685 101.765 36.4936 105.1 49.3797 73.2925 -177.918 34.642 79.5978 -66.6786 3.62203 1.00286 60.3832 0.542118 -4.16573 46.0591 -1.85282 2.0819 176.767 1.86886 89.1836 -33.639 -19.7895 -1.33544 44.764 13.1536 19.0767 23.7652 0.659061 4.84367 0.604811 7.86137 -90.4779 11.1536 0.98182 -1.04558 -0.517389 0.934876 -1.08778 -23.0538 1.25066 -0.702155 -3.04113 1.25067 -0.702161 100.614 -43.4354 -84.7985 24.9612 -43.4313 -9.09532 -13.4952 8.9391 -66.3869 -1.15529 -0.00572038 -10.1613 -80.2094 -43.937 92.9891 -6.7418 -2.79905 5.31948 -0.501187 -4.25014 -65.9798 7.49015 -0.474896 -8.7471 23.3643 -0.402712 6.51244 -24.9564 -2.46292 -0.979071 
-50.2023 104.529 26.3432 103.568 45.3947 75.7869 179.545 28.051 80.5057 -42.868 3.90509 0.842417 59.6377 -0.291947 -5.25741 47.4173 -1.99085 1.89904 176.037 3.21468 88.121 -24.8698 -11.6237 -0.770611 51.2314 10.3329 17.9232 28.4286 0.113722 -0.27884 0.866816 8.00936 -90.6081 10.8628 1.44494 -1.34493 -0.808165 1.38435 -1.40722 -23.3471 1.78233 -0.84846 -3.33447 1.78232 -0.848455 100.648 -42.8255 -84.7597 23.2498 -47.4504 -10.0657 -15.8486 12.7395 -73.229 0.631471 -0.0749535 -9.43161 -79.7025 -42.5854 93.7643 -3.5204 -9.80623 12.0798 -4.27206 -5.03559 -71.3819 13.4965 -0.551411 -7.67586 25.5828 0.869161 7.73483 -26.7545 -1.61557 -1.92067 
-39.1887 99.9801 16.3809 103.927 44.3967 77.1839 177.346 25.4563 81.0659 -28.3516 5.85204 1.65454 61.0583 0.0789441 -6.73845 44.1739 -1.72624 -0.395946 174.711 2.91675 88.5869 -21.1565 -4.10835 0.50548 51.122 10.2049 19.1734 35.0682 -1.46421 -3.16661 0.882642 8.20742 -90.8075 10.467 1.38788 -1.72789 -1.20448 1.31052 -1.7873 -23.7402 1.84297 -1.23093 -3.72757 1.84297 -1.23094 100.476 -43.1079 -85.0444 21.8761 -46.2575 -10.9989 -14.7354 14.135 -77.9845 -1.79869 0.0163778 -9.26236 -79.1557 -41.6828 94.6465 -2.12135 -15.4555 13.9779 -4.66634 -3.97648 -77.2717 14.9745 -0.524644 -7.20837 23.6594 0.738472 7.76452 -24.4341 -1.71913 -1.53503 
-27.8583 92.7977 6.30739 107.491 47.5446 77.0223 174.663 22.1569 82.2075 -13.1366 8.69721 2.74932 58.3193 -0.139329 -7.35023 44.5253 -1.71668 1.57587 173.487 -4.0452 90.6161 -36.2756 -7.18689 2.18195 74.352 -11.0649 -3.28639 43.2275 -3.47432 1.84747 0.602056 8.58092 -91.041 9.71284 0.729363 -2.11465 -1.9597 0.635608 -2.14468 -24.4856 1.33108 -1.79785 -4.47299 1.33108 -1.79786 100.473 -43.9515 -85.0126 20.9915 -43.1634 -13.0379 -15.9096 11.5957 -75.407 -5.80917 0.103615 -8.17141 -78.4853 -43.1923 95.7974 -3.75966 -16.9202 9.74855 -2.31598 -2.96274 -82.5301 12.2802 -0.534675 -7.85108 21.7094 -0.462653 6.36691 -20.3742 -2.49923 -0.375904 
-14.3971 89.8313 -4.95843 100.712 47.4054 82.4782 176.471 26.0142 83.216 -9.90545 9.17548 1.80121 58.2231 -0.800095 -5.70953 41.769 -1.48325 4.1102 173.755 -10.0625 94.0678 -36.874 -6.03444 1.53555 75.9207 -8.17829 5.31563 56.411 -6.99843 -1.09443 0.632647 8.02606 -90.6047 10.8301 0.980335 -1.31041 -0.841181 0.921701 -1.35228 -23.3763 1.32885 -0.955215 -3.3637 1.32886 -0.955223 100.629 -46.9495 -84.6596 24.2537 -40.0682 -10.2749 -16.2917 3.34543 -59.8926 -8.08513 0.0431736 -6.15443 -79.1305 -47.6905 94.8557 -12.4403 -12.1832 6.31178 0.531788 -3.26347 -77.9681 7.72729 -0.481949 -8.80879 20.8035 -1.45137 2.12957 -21.2726 -2.10881 -0.0257771 
-0.824192 87.3998 -16.8448 99.0912 43.9397 81.9098 179.118 33.2976 81.2634 -36.7949 9.65866 0.873965 56.5521 -1.62175 4.02739 38.4353 -1.00129 -2.48528 171.531 -9.04501 86.7824 -51.6295 -14.5195 -0.530099 55.4342 6.86278 17.0218 42.5898 -3.26796 3.85977 0.510403 7.94901 -89.7044 10.9736 1.15312 0.478423 -0.696937 1.17305 0.427201 -23.2344 0.95602 0.802883 -3.22178 0.95604 0.802886 101.309 -48.5392 -83.5274 28.8032 -34.1801 -7.72253 -13.0629 -10.5498 -41.1674 -6.72308 0.0457129 -6.46341 -81.2096 -52.5545 91.9055 -17.4711 -4.71423 3.37363 0.924658 -3.25447 -66.7865 5.26082 -0.403563 -9.05946 27.4266 -1.78563 -1.30448 -26.0234 -1.3102 0.484129 
11.5092 86.2515 -27.164 104.114 45.2244 76.7744 -178.003 26.6887 77.8897 -53.161 14.747 -0.0401993 68.4488 11.0553 16.044 32.4945 -0.123143 -3.38886 171.694 2.20039 84.0488 -83.232 -19.3269 -2.20117 52.0912 5.93236 5.95716 30.6815 -0.125498 -5.37877 -0.191896 8.52925 -89.1964 9.8104 -0.0182454 1.59223 -1.86156 0.051847 1.59149 -24.3893 -0.495874 1.51319 -4.37662 -0.495861 1.51317 101.287 -48.6082 -83.562 27.5511 -21.8644 -5.4104 -6.01942 -13.851 -29.1648 -5.346 -0.104435 -3.61099 -83.5055 -53.2127 88.5836 -20.3497 6.42213 -8.90505 3.20208 -0.919744 -57.8084 2.27107 -0.372047 -11.1083 32.0262 -1.23965 -2.51919 -22.6996 -0.553276 2.59353 
22.138 91.5376 -37.3886 104.191 47.1808 78.9718 -178.045 14.5326 82.3737 -48.8946 15.1133 1.31359 69.2358 7.80685 7.14662 36.1354 -0.72096 -2.11042 171.957 20.4755 88.2499 -90.4995 -16.2708 -2.0098 57.3075 3.14002 8.76696 34.9344 -1.26765 -7.14762 -0.637083 8.37635 -89.4778 10.1349 -1.03135 1.12202 -1.5361 -0.980957 1.16631 -24.0733 -1.32093 0.760174 -4.0607 -1.32092 0.760173 101.357 -46.9225 -83.4786 24.5647 -9.28695 -2.09171 0.188261 -14.7526 -15.973 -10.0081 -0.383226 -0.712191 -84.0744 -52.6602 87.6952 -17.2815 20.7355 -19.9288 6.35149 1.27253 -58.3835 -1.69242 -0.117521 -10.8106 31.2592 0.432813 -0.839092 -24.2518 0.449496 1.85505 
32.6579 98.7582 -47.292 107.18 53.0255 79.6799 -178.896 8.04556 88.3595 -45.4384 10.8578 3.58734 45.5287 -8.96455 -7.92289 30.3363 0.0883102 -2.5519 171.223 25.4029 90.1037 -73.1565 -10.1856 0.297133 65.0719 0.913313 13.0281 40.5698 -3.09211 -9.12894 -0.978043 8.19277 -89.9756 10.4911 -1.9369 0.222198 -1.17847 -1.92524 0.307251 -23.7248 -1.91409 -0.37041 -3.7122 -1.9141 -0.370417 101.782 -45.1833 -82.801 19.8286 -5.58047 4.85085 3.4712 -11.4652 -8.99622 -8.17565 -0.334688 -0.469233 -83.5817 -50.9995 88.2547 -11.0026 34.3645 -29.926 7.47816 -1.0406 -65.3208 -1.98298 -0.108715 -10.453 23.2528 -0.647179 -2.44925 -24.065 -0.0804813 1.53149 
42.8234 101.941 -56.8801 110.038 56.9541 78.1587 179.438 4.27937 88.4881 -34.2681 10.9181 5.40891 47.595 -7.7942 -8.71791 30.6243 0.324891 -5.22501 175.259 23.5106 90.9612 -47.7295 -6.18073 0.755828 67.1173 0.71184 14.7648 40.6245 -3.09833 -8.50471 -1.02253 8.18555 -90.0223 10.5054 -2.04692 0.137989 -1.164 -2.03887 0.227985 -23.7116 -1.99373 -0.483833 -3.69898 -1.99372 -0.483821 102.32 -42.9788 -81.8974 18.795 -7.13201 12.965 4.08807 -12.8564 -8.22897 -7.19841 -0.287533 -0.568134 -83.6535 -49.2657 87.9653 0.106391 43.5847 -37.9904 5.52145 -10.1672 -81.0702 -3.51003 -0.0288743 -10.5748 19.5847 -2.42807 -4.14494 -24.3499 -1.02716 -0.202546 
52.0512 98.3398 -65.6175 112.71 60.2516 74.3537 178.63 4.31327 85.3245 -28.8727 19.5951 5.49809 58.0004 -1.57734 -2.76501 31.477 -0.0317423 -3.0199 177.021 21.7592 88.0664 -24.2712 -5.083 0.406414 62.6925 5.01341 20.9589 37.7385 -2.16592 -7.00136 -0.995912 8.46281 -89.8362 9.95198 -1.91064 0.479124 -1.71769 -1.8877 0.562764 -24.264 -1.96626 -0.11747 -4.25139 -1.96626 -0.117479 102.106 -41.8303 -82.2637 18.0215 -4.67033 20.0697 3.58075 -12.6768 -8.42827 -7.98954 -0.326109 -0.409498 -83.7738 -45.6786 87.3789 5.03092 41.7192 -43.5983 7.96479 -14.0399 -94.406 -5.79753 0.123707 -11.455 19.7924 -4.42711 -5.02897 -22.6475 -2.56525 -0.951021 
61.2835 91.5292 -74.2259 117.362 59.5401 66.4222 177.919 0.0896723 80.6512 -42.9336 17.3524 4.50954 77.1346 19.4763 13.71 39.6483 -1.09741 0.0439871 177.748 24.0434 83.8246 -15.6934 -2.65747 -0.928244 61.3015 5.69163 17.14 39.4289 -2.68605 -5.40586 -0.971908 8.97431 -89.5268 8.9408 -1.7276 1.05085 -2.72944 -1.67969 1.12589 -25.2734 -1.96358 0.482914 -5.26079 -1.96356 0.482914 102.294 -42.3878 -81.9425 14.9856 -0.940489 19.7325 3.56019 -11.3706 -6.92511 -11.5068 -0.644038 1.08116 -83.5806 -46.4838 87.7789 2.64281 35.2598 -40.3593 8.61433 -13.2305 -95.3286 -2.67481 -0.0871289 -11.3512 17.9127 -4.68876 -5.15143 -17.4497 -3.08574 0.414179 
71.1945 89.9099 -85.1098 115.446 57.9293 66.3492 -178.81 -1.83607 82.8723 -54.359 16.2558 3.0706 68.949 9.07858 3.53316 54.6251 -2.97203 -0.138108 177.005 26.1112 81.7657 -17.2099 0.901708 -0.427024 62.886 5.29191 14.9989 35.5281 -1.55039 -5.22896 -0.922009 8.60631 -89.6663 9.66639 -1.6871 0.803514 -2.00378 -1.6501 0.876997 -24.5473 -1.85057 0.259179 -4.5346 -1.85057 0.259177 103.42 -41.5278 -79.9706 19.6093 0.2165 17.8992 2.20854 -9.11538 -11.8713 -11.0404 -0.485734 -0.0927181 -82.2211 -49.9403 90.2046 -10.9891 30.4481 -22.7994 13.7433 -6.89183 -75.2165 -1.86953 -0.119065 -9.60494 13.8409 -2.97482 -1.40917 -20.4833 -2.34685 -1.08469 
81.2568 87.9312 -95.9667 120.667 61.2838 64.2482 179.949 5.86017 89.9489 -73.9898 10.9105 4.55788 55.9403 -0.995544 -2.86132 44.6111 -1.82892 -2.6797 172.602 28.2125 82.7906 -31.5727 -13.8438 4.44663 47.7507 10.2977 -0.810573 38.4805 -2.39984 2.28509 -0.946304 8.73375 -90.5922 9.39648 -2.15317 -1.01354 -2.27302 -2.1957 -0.91776 -24.8152 -1.74904 -1.61388 -4.80257 -1.74904 -1.61388 103.859 -43.1945 -79.2761 23.2639 -0.940293 13.9397 0.28246 -10.0186 -15.3278 -3.38368 -0.0416226 -4.50549 -82.1547 -49.9147 90.3102 -22.4508 19.7615 -13.9882 16.1141 11.9092 -52.2447 -0.158867 -0.174771 -8.72846 16.1848 -2.96672 -0.058078 -19.7934 -3.0421 1.2181 
89.0856 87.3922 -104.145 121.401 56.7595 68.3597 177.068 14.2663 92.3505 -81.8285 8.87486 5.07808 63.2536 5.86768 4.76423 49.6637 -2.18508 1.88296 170.624 26.5743 89.5346 -46.8246 -17.3691 5.21344 56.461 1.58136 -7.59703 32.957 -1.20098 3.32652 -0.404782 9.36744 -91.4509 8.1091 -1.44433 -2.77718 -3.56393 -1.56513 -2.71098 -26.0763 -0.543416 -3.08259 -6.06366 -0.543406 -3.08258 101.844 -46.2093 -82.6959 21.8279 -5.9215 -2.28234 -1.28755 -22.1494 -13.0339 -5.37536 -0.200158 -0.724242 -83.5386 -52.5396 88.4693 -23.9081 8.67426 -11.458 17.3693 30.4123 -36.6949 0.521445 -0.109758 -4.85201 20.4984 -1.84285 1.25076 -21.3921 -2.48166 2.05912 
